<!DOCTYPE svg PUBLIC "-//W3C//DTD SVG 1.1//EN" "http://www.w3.org/Graphics/SVG/1.1/DTD/svg11.dtd">
<!-- Uploaded to: SVG Repo, www.svgrepo.com, Transformed by: SVG Repo Mixer Tools -->
<svg fill="#eaeaea" height="64px" width="64px" version="1.1" id="Layer_1" xmlns="http://www.w3.org/2000/svg" xmlns:xlink="http://www.w3.org/1999/xlink" viewBox="0 0 512.002 512.002" xml:space="preserve" stroke="#eaeaea">
<g id="SVGRepo_bgCarrier" stroke-width="0"/>
<g id="SVGRepo_tracerCarrier" stroke-linecap="round" stroke-linejoin="round"/>
<g id="SVGRepo_iconCarrier"> <g> <g> <path d="M421.977,177.598c-3.653-0.216-10.823-0.631-25.33,2.714c10.151-10.892,13.376-17.309,15.015-20.577 c23.65-47.107,4.566-104.671-42.541-128.321c-22.406-11.249-47.985-12.719-72.022-4.133c-15.09,5.387-29.186,14.554-41.1,26.553 c-11.916-11.999-26.011-21.167-41.1-26.553c-24.037-8.583-49.616-7.114-72.022,4.133c-47.108,23.65-66.191,81.214-42.541,128.32 c1.641,3.268,4.865,9.687,15.019,20.582c-14.512-3.346-21.683-2.93-25.333-2.716c-52.621,3.073-92.93,48.382-89.858,101 c1.461,25.026,12.978,47.912,32.432,64.441c12.211,10.375,27.197,17.998,43.546,22.317c-4.434,16.319-5.326,33.108-2.446,48.869 c4.587,25.111,18.646,46.528,39.591,60.308c16.153,10.627,34.365,15.707,52.392,15.706c31.117-0.002,61.663-15.143,80.007-43.025 c2.011-3.055,5.957-9.056,10.314-23.296c4.358,14.24,8.303,20.24,10.314,23.296c18.347,27.884,48.888,43.025,80.007,43.025 c18.023,0,36.241-5.081,52.392-15.706c20.943-13.779,35.004-35.197,39.591-60.308c2.88-15.761,1.988-32.55-2.446-48.869 c16.35-4.32,31.336-11.942,43.546-22.317c19.453-16.529,30.971-39.414,32.432-64.441 C514.908,225.98,474.599,180.671,421.977,177.598z M158.961,63.45c7.16-3.594,15.584-5.648,24.521-5.648 c19.374,0,41.151,9.654,57.64,34.19l14.877,22.138l14.877-22.138c24.093-35.856,59.481-39.931,82.162-28.543 c29.442,14.781,41.369,50.758,26.589,80.201c-2.979,5.931-15.778,23.788-70.018,61.745 c-13.952-13.333-32.835-21.549-53.609-21.549c-20.775,0-39.658,8.216-53.609,21.549c-54.239-37.956-67.038-55.813-70.017-61.745 C117.593,114.208,129.52,78.231,158.961,63.45z M215.74,427.513c-18.108,27.522-55.23,35.179-82.751,17.073 c-30.247-19.9-29.684-58.231-16.361-85.425l11.734-23.953l-26.612-1.815c-30.212-2.061-63.691-20.74-65.8-56.883 c-1.92-32.887,23.274-61.205,56.161-63.126c0.397-0.024,0.848-0.037,1.36-0.037c8.02,0,30.713,3.482,87.079,29.781 c-1.439,5.899-2.218,12.053-2.218,18.388c0,35.259,23.624,65.086,55.87,74.533C228.452,401.97,219.39,421.964,215.74,427.513z M256,303.337c-23.06,0-41.822-18.761-41.822-41.822c0-23.06,18.761-41.822,41.822-41.822c23.06,0,41.822,18.762,41.822,41.822 C297.821,284.575,279.06,303.337,256,303.337z M476.049,276.51c-2.11,36.143-35.588,54.823-65.8,56.883l-26.612,1.815 l11.734,23.953c13.322,27.194,13.885,65.525-16.361,85.425c-27.522,18.108-64.642,10.447-82.75-17.074 c-3.648-5.546-12.711-25.538-18.464-91.464c32.246-9.447,55.871-39.274,55.871-74.533c0-6.335-0.779-12.488-2.218-18.388 c59.954-27.971,81.792-30.133,88.439-29.744C452.775,215.305,477.97,243.622,476.049,276.51z"/> </g> </g> </g>
</svg>